<mxfile host="app.diagrams.net" modified="2022-03-18T10:39:08.840Z" agent="5.0 (Macintosh; Intel Mac OS X 10_14_6) AppleWebKit/537.36 (KHTML, like Gecko) Chrome/99.0.4844.74 Safari/537.36" etag="R5kyM0ZnDD9C612M4kQv" version="17.1.2" type="github">
  <diagram id="dOz6Z9lJ9oCAIP8GvEkG" name="Page-1">
    <mxGraphModel dx="2066" dy="1079" grid="1" gridSize="10" guides="1" tooltips="1" connect="1" arrows="1" fold="1" page="1" pageScale="1" pageWidth="827" pageHeight="1169" math="0" shadow="0">
      <root>
        <mxCell id="0" />
        <mxCell id="1" parent="0" />
        <mxCell id="L7DC1weGrc2uVhu9UuXh-1" value="Region" style="points=[[0,0],[0.25,0],[0.5,0],[0.75,0],[1,0],[1,0.25],[1,0.5],[1,0.75],[1,1],[0.75,1],[0.5,1],[0.25,1],[0,1],[0,0.75],[0,0.5],[0,0.25]];outlineConnect=0;gradientColor=none;html=1;whiteSpace=wrap;fontSize=12;fontStyle=0;container=1;pointerEvents=0;collapsible=0;recursiveResize=0;shape=mxgraph.aws4.group;grIcon=mxgraph.aws4.group_region;strokeColor=#147EBA;fillColor=none;verticalAlign=top;align=left;spacingLeft=30;fontColor=#147EBA;dashed=1;" vertex="1" parent="1">
          <mxGeometry x="140" y="330" width="650" height="470" as="geometry" />
        </mxCell>
        <mxCell id="L7DC1weGrc2uVhu9UuXh-3" value="VPC" style="points=[[0,0],[0.25,0],[0.5,0],[0.75,0],[1,0],[1,0.25],[1,0.5],[1,0.75],[1,1],[0.75,1],[0.5,1],[0.25,1],[0,1],[0,0.75],[0,0.5],[0,0.25]];outlineConnect=0;gradientColor=none;html=1;whiteSpace=wrap;fontSize=12;fontStyle=0;container=1;pointerEvents=0;collapsible=0;recursiveResize=0;shape=mxgraph.aws4.group;grIcon=mxgraph.aws4.group_vpc;strokeColor=#248814;fillColor=none;verticalAlign=top;align=left;spacingLeft=30;fontColor=#AAB7B8;dashed=0;" vertex="1" parent="L7DC1weGrc2uVhu9UuXh-1">
          <mxGeometry x="30" y="50" width="590" height="350" as="geometry" />
        </mxCell>
        <mxCell id="L7DC1weGrc2uVhu9UuXh-11" value="" style="group" vertex="1" connectable="0" parent="L7DC1weGrc2uVhu9UuXh-3">
          <mxGeometry x="30" y="120" width="220" height="170" as="geometry" />
        </mxCell>
        <mxCell id="L7DC1weGrc2uVhu9UuXh-4" value="Availability Zone" style="fillColor=none;strokeColor=#147EBA;dashed=1;verticalAlign=top;fontStyle=0;fontColor=#147EBA;" vertex="1" parent="L7DC1weGrc2uVhu9UuXh-11">
          <mxGeometry width="220" height="170" as="geometry" />
        </mxCell>
        <mxCell id="L7DC1weGrc2uVhu9UuXh-7" value="Auto Scaling group" style="points=[[0,0],[0.25,0],[0.5,0],[0.75,0],[1,0],[1,0.25],[1,0.5],[1,0.75],[1,1],[0.75,1],[0.5,1],[0.25,1],[0,1],[0,0.75],[0,0.5],[0,0.25]];outlineConnect=0;gradientColor=none;html=1;whiteSpace=wrap;fontSize=12;fontStyle=0;container=1;pointerEvents=0;collapsible=0;recursiveResize=0;shape=mxgraph.aws4.groupCenter;grIcon=mxgraph.aws4.group_auto_scaling_group;grStroke=1;strokeColor=#D86613;fillColor=none;verticalAlign=top;align=center;fontColor=#D86613;dashed=1;spacingTop=25;" vertex="1" parent="L7DC1weGrc2uVhu9UuXh-11">
          <mxGeometry x="20" y="40" width="180" height="123" as="geometry" />
        </mxCell>
        <mxCell id="L7DC1weGrc2uVhu9UuXh-8" value="" style="sketch=0;points=[[0,0,0],[0.25,0,0],[0.5,0,0],[0.75,0,0],[1,0,0],[0,1,0],[0.25,1,0],[0.5,1,0],[0.75,1,0],[1,1,0],[0,0.25,0],[0,0.5,0],[0,0.75,0],[1,0.25,0],[1,0.5,0],[1,0.75,0]];outlineConnect=0;fontColor=#232F3E;gradientColor=#F78E04;gradientDirection=north;fillColor=#D05C17;strokeColor=#ffffff;dashed=0;verticalLabelPosition=bottom;verticalAlign=top;align=center;html=1;fontSize=12;fontStyle=0;aspect=fixed;shape=mxgraph.aws4.resourceIcon;resIcon=mxgraph.aws4.ec2;" vertex="1" parent="L7DC1weGrc2uVhu9UuXh-11">
          <mxGeometry x="40" y="100" width="48" height="48" as="geometry" />
        </mxCell>
        <mxCell id="L7DC1weGrc2uVhu9UuXh-10" value="" style="sketch=0;points=[[0,0,0],[0.25,0,0],[0.5,0,0],[0.75,0,0],[1,0,0],[0,1,0],[0.25,1,0],[0.5,1,0],[0.75,1,0],[1,1,0],[0,0.25,0],[0,0.5,0],[0,0.75,0],[1,0.25,0],[1,0.5,0],[1,0.75,0]];outlineConnect=0;fontColor=#232F3E;gradientColor=#F78E04;gradientDirection=north;fillColor=#D05C17;strokeColor=#ffffff;dashed=0;verticalLabelPosition=bottom;verticalAlign=top;align=center;html=1;fontSize=12;fontStyle=0;aspect=fixed;shape=mxgraph.aws4.resourceIcon;resIcon=mxgraph.aws4.ec2;" vertex="1" parent="L7DC1weGrc2uVhu9UuXh-11">
          <mxGeometry x="130" y="100" width="48" height="48" as="geometry" />
        </mxCell>
        <mxCell id="L7DC1weGrc2uVhu9UuXh-12" value="" style="group" vertex="1" connectable="0" parent="L7DC1weGrc2uVhu9UuXh-3">
          <mxGeometry x="340" y="120" width="220" height="170" as="geometry" />
        </mxCell>
        <mxCell id="L7DC1weGrc2uVhu9UuXh-13" value="Availability Zone" style="fillColor=none;strokeColor=#147EBA;dashed=1;verticalAlign=top;fontStyle=0;fontColor=#147EBA;" vertex="1" parent="L7DC1weGrc2uVhu9UuXh-12">
          <mxGeometry width="220" height="170" as="geometry" />
        </mxCell>
        <mxCell id="L7DC1weGrc2uVhu9UuXh-14" value="Auto Scaling group" style="points=[[0,0],[0.25,0],[0.5,0],[0.75,0],[1,0],[1,0.25],[1,0.5],[1,0.75],[1,1],[0.75,1],[0.5,1],[0.25,1],[0,1],[0,0.75],[0,0.5],[0,0.25]];outlineConnect=0;gradientColor=none;html=1;whiteSpace=wrap;fontSize=12;fontStyle=0;container=1;pointerEvents=0;collapsible=0;recursiveResize=0;shape=mxgraph.aws4.groupCenter;grIcon=mxgraph.aws4.group_auto_scaling_group;grStroke=1;strokeColor=#D86613;fillColor=none;verticalAlign=top;align=center;fontColor=#D86613;dashed=1;spacingTop=25;" vertex="1" parent="L7DC1weGrc2uVhu9UuXh-12">
          <mxGeometry x="20" y="40" width="180" height="123" as="geometry" />
        </mxCell>
        <mxCell id="L7DC1weGrc2uVhu9UuXh-15" value="" style="sketch=0;points=[[0,0,0],[0.25,0,0],[0.5,0,0],[0.75,0,0],[1,0,0],[0,1,0],[0.25,1,0],[0.5,1,0],[0.75,1,0],[1,1,0],[0,0.25,0],[0,0.5,0],[0,0.75,0],[1,0.25,0],[1,0.5,0],[1,0.75,0]];outlineConnect=0;fontColor=#232F3E;gradientColor=#F78E04;gradientDirection=north;fillColor=#D05C17;strokeColor=#ffffff;dashed=0;verticalLabelPosition=bottom;verticalAlign=top;align=center;html=1;fontSize=12;fontStyle=0;aspect=fixed;shape=mxgraph.aws4.resourceIcon;resIcon=mxgraph.aws4.ec2;" vertex="1" parent="L7DC1weGrc2uVhu9UuXh-12">
          <mxGeometry x="40" y="100" width="48" height="48" as="geometry" />
        </mxCell>
        <mxCell id="L7DC1weGrc2uVhu9UuXh-16" value="" style="sketch=0;points=[[0,0,0],[0.25,0,0],[0.5,0,0],[0.75,0,0],[1,0,0],[0,1,0],[0.25,1,0],[0.5,1,0],[0.75,1,0],[1,1,0],[0,0.25,0],[0,0.5,0],[0,0.75,0],[1,0.25,0],[1,0.5,0],[1,0.75,0]];outlineConnect=0;fontColor=#232F3E;gradientColor=#F78E04;gradientDirection=north;fillColor=#D05C17;strokeColor=#ffffff;dashed=0;verticalLabelPosition=bottom;verticalAlign=top;align=center;html=1;fontSize=12;fontStyle=0;aspect=fixed;shape=mxgraph.aws4.resourceIcon;resIcon=mxgraph.aws4.ec2;" vertex="1" parent="L7DC1weGrc2uVhu9UuXh-12">
          <mxGeometry x="130" y="100" width="48" height="48" as="geometry" />
        </mxCell>
        <mxCell id="L7DC1weGrc2uVhu9UuXh-19" style="edgeStyle=orthogonalEdgeStyle;rounded=0;orthogonalLoop=1;jettySize=auto;html=1;" edge="1" parent="L7DC1weGrc2uVhu9UuXh-3" source="L7DC1weGrc2uVhu9UuXh-18" target="L7DC1weGrc2uVhu9UuXh-13">
          <mxGeometry relative="1" as="geometry" />
        </mxCell>
        <mxCell id="L7DC1weGrc2uVhu9UuXh-20" style="edgeStyle=orthogonalEdgeStyle;rounded=0;orthogonalLoop=1;jettySize=auto;html=1;" edge="1" parent="L7DC1weGrc2uVhu9UuXh-3" source="L7DC1weGrc2uVhu9UuXh-18" target="L7DC1weGrc2uVhu9UuXh-4">
          <mxGeometry relative="1" as="geometry" />
        </mxCell>
        <mxCell id="L7DC1weGrc2uVhu9UuXh-18" value="" style="sketch=0;outlineConnect=0;fontColor=#232F3E;gradientColor=none;fillColor=#4D27AA;strokeColor=none;dashed=0;verticalLabelPosition=bottom;verticalAlign=top;align=center;html=1;fontSize=12;fontStyle=0;aspect=fixed;pointerEvents=1;shape=mxgraph.aws4.application_load_balancer;" vertex="1" parent="L7DC1weGrc2uVhu9UuXh-3">
          <mxGeometry x="256" y="20" width="78" height="78" as="geometry" />
        </mxCell>
        <mxCell id="L7DC1weGrc2uVhu9UuXh-2" value="" style="rounded=1;arcSize=10;dashed=1;fillColor=none;gradientColor=none;dashPattern=1 1;strokeWidth=2;" vertex="1" parent="1">
          <mxGeometry x="20" y="330" width="100" height="470" as="geometry" />
        </mxCell>
        <mxCell id="L7DC1weGrc2uVhu9UuXh-21" value="" style="sketch=0;points=[[0,0,0],[0.25,0,0],[0.5,0,0],[0.75,0,0],[1,0,0],[0,1,0],[0.25,1,0],[0.5,1,0],[0.75,1,0],[1,1,0],[0,0.25,0],[0,0.5,0],[0,0.75,0],[1,0.25,0],[1,0.5,0],[1,0.75,0]];points=[[0,0,0],[0.25,0,0],[0.5,0,0],[0.75,0,0],[1,0,0],[0,1,0],[0.25,1,0],[0.5,1,0],[0.75,1,0],[1,1,0],[0,0.25,0],[0,0.5,0],[0,0.75,0],[1,0.25,0],[1,0.5,0],[1,0.75,0]];outlineConnect=0;fontColor=#232F3E;gradientColor=#F34482;gradientDirection=north;fillColor=#BC1356;strokeColor=#ffffff;dashed=0;verticalLabelPosition=bottom;verticalAlign=top;align=center;html=1;fontSize=12;fontStyle=0;aspect=fixed;shape=mxgraph.aws4.resourceIcon;resIcon=mxgraph.aws4.cloudwatch_2;" vertex="1" parent="1">
          <mxGeometry x="40" y="520" width="60" height="60" as="geometry" />
        </mxCell>
        <mxCell id="L7DC1weGrc2uVhu9UuXh-23" style="edgeStyle=orthogonalEdgeStyle;rounded=0;orthogonalLoop=1;jettySize=auto;html=1;" edge="1" parent="1" source="L7DC1weGrc2uVhu9UuXh-22" target="L7DC1weGrc2uVhu9UuXh-18">
          <mxGeometry relative="1" as="geometry" />
        </mxCell>
        <mxCell id="L7DC1weGrc2uVhu9UuXh-22" value="" style="sketch=0;outlineConnect=0;fontColor=#232F3E;gradientColor=none;fillColor=#232F3D;strokeColor=none;dashed=0;verticalLabelPosition=bottom;verticalAlign=top;align=center;html=1;fontSize=12;fontStyle=0;aspect=fixed;pointerEvents=1;shape=mxgraph.aws4.users;" vertex="1" parent="1">
          <mxGeometry x="426" y="140" width="78" height="78" as="geometry" />
        </mxCell>
        <mxCell id="L7DC1weGrc2uVhu9UuXh-24" value="OPS" style="text;html=1;strokeColor=none;fillColor=none;align=center;verticalAlign=middle;whiteSpace=wrap;rounded=0;" vertex="1" parent="1">
          <mxGeometry x="40" y="340" width="60" height="30" as="geometry" />
        </mxCell>
        <mxCell id="L7DC1weGrc2uVhu9UuXh-25" value="Amazon CloudWatch" style="text;html=1;strokeColor=none;fillColor=none;align=center;verticalAlign=middle;whiteSpace=wrap;rounded=0;" vertex="1" parent="1">
          <mxGeometry x="40" y="590" width="60" height="30" as="geometry" />
        </mxCell>
        <mxCell id="L7DC1weGrc2uVhu9UuXh-26" value="" style="swimlane;startSize=0;" vertex="1" parent="1">
          <mxGeometry x="10" y="110" width="820" height="740" as="geometry" />
        </mxCell>
      </root>
    </mxGraphModel>
  </diagram>
</mxfile>
